# xmcd
# 
# Track frame offsets:
#     150
#     18200
#     41900
#     62000
# 
# Disc length: 1125
# 
# Revision: 0
# Processed by: cddbd v1.5.2PL0 Copyright (c) Steve Scherf et al.
# Submitted via: fre:ac v1.0.17
# 
DISCID=2c046304
DTITLE=Lorenza - Show Me Your Love MCD
DYEAR=1995
DGENRE=Dance
TTITLE0=Show Me Your Love (Radio Mix)
TTITLE1=Show Me Your Love (Extended Mix)
TTITLE2=Show Me Your Love (Shut Up And Dance Mix)
TTITLE3=Show Me Your Love (High Up Dub Mix)
EXTD=
EXTT0=
EXTT1=
EXTT2=
EXTT3=
PLAYORDER=
